<svg id="visual" viewBox="0 0 900 600" width="900" height="600" xmlns="http://www.w3.org/2000/svg" xmlns:xlink="http://www.w3.org/1999/xlink" version="1.1"><rect x="0" y="0" width="900" height="600" fill="#f0f0f0"></rect><path d="M0 356L21.5 373.2C43 390.3 86 424.7 128.8 424.3C171.7 424 214.3 389 257.2 388.8C300 388.7 343 423.3 385.8 427C428.7 430.7 471.3 403.3 514.2 397.2C557 391 600 406 642.8 419.8C685.7 433.7 728.3 446.3 771.2 445.5C814 444.7 857 430.3 878.5 423.2L900 416L900 601L878.5 601C857 601 814 601 771.2 601C728.3 601 685.7 601 642.8 601C600 601 557 601 514.2 601C471.3 601 428.7 601 385.8 601C343 601 300 601 257.2 601C214.3 601 171.7 601 128.8 601C86 601 43 601 21.5 601L0 601Z" fill="#6464ff"></path><path d="M0 447L21.5 443.7C43 440.3 86 433.7 128.8 424.7C171.7 415.7 214.3 404.3 257.2 399.3C300 394.3 343 395.7 385.8 410.3C428.7 425 471.3 453 514.2 457.8C557 462.7 600 444.3 642.8 439.7C685.7 435 728.3 444 771.2 452.5C814 461 857 469 878.5 473L900 477L900 601L878.5 601C857 601 814 601 771.2 601C728.3 601 685.7 601 642.8 601C600 601 557 601 514.2 601C471.3 601 428.7 601 385.8 601C343 601 300 601 257.2 601C214.3 601 171.7 601 128.8 601C86 601 43 601 21.5 601L0 601Z" fill="#5554dd"></path><path d="M0 485L21.5 486.7C43 488.3 86 491.7 128.8 484.8C171.7 478 214.3 461 257.2 461.8C300 462.7 343 481.3 385.8 483.7C428.7 486 471.3 472 514.2 469C557 466 600 474 642.8 473.2C685.7 472.3 728.3 462.7 771.2 465.2C814 467.7 857 482.3 878.5 489.7L900 497L900 601L878.5 601C857 601 814 601 771.2 601C728.3 601 685.7 601 642.8 601C600 601 557 601 514.2 601C471.3 601 428.7 601 385.8 601C343 601 300 601 257.2 601C214.3 601 171.7 601 128.8 601C86 601 43 601 21.5 601L0 601Z" fill="#4644bc"></path><path d="M0 463L21.5 467.2C43 471.3 86 479.7 128.8 483.2C171.7 486.7 214.3 485.3 257.2 487.5C300 489.7 343 495.3 385.8 498.7C428.7 502 471.3 503 514.2 505.5C557 508 600 512 642.8 516.3C685.7 520.7 728.3 525.3 771.2 520.8C814 516.3 857 502.7 878.5 495.8L900 489L900 601L878.5 601C857 601 814 601 771.2 601C728.3 601 685.7 601 642.8 601C600 601 557 601 514.2 601C471.3 601 428.7 601 385.8 601C343 601 300 601 257.2 601C214.3 601 171.7 601 128.8 601C86 601 43 601 21.5 601L0 601Z" fill="#36359c"></path><path d="M0 502L21.5 501.7C43 501.3 86 500.7 128.8 504C171.7 507.3 214.3 514.7 257.2 515.2C300 515.7 343 509.3 385.8 506.8C428.7 504.3 471.3 505.7 514.2 507.3C557 509 600 511 642.8 516.2C685.7 521.3 728.3 529.7 771.2 534.8C814 540 857 542 878.5 543L900 544L900 601L878.5 601C857 601 814 601 771.2 601C728.3 601 685.7 601 642.8 601C600 601 557 601 514.2 601C471.3 601 428.7 601 385.8 601C343 601 300 601 257.2 601C214.3 601 171.7 601 128.8 601C86 601 43 601 21.5 601L0 601Z" fill="#28267d"></path><path d="M0 537L21.5 541.5C43 546 86 555 128.8 557.5C171.7 560 214.3 556 257.2 554C300 552 343 552 385.8 552.2C428.7 552.3 471.3 552.7 514.2 555.7C557 558.7 600 564.3 642.8 568C685.7 571.7 728.3 573.3 771.2 570.8C814 568.3 857 561.7 878.5 558.3L900 555L900 601L878.5 601C857 601 814 601 771.2 601C728.3 601 685.7 601 642.8 601C600 601 557 601 514.2 601C471.3 601 428.7 601 385.8 601C343 601 300 601 257.2 601C214.3 601 171.7 601 128.8 601C86 601 43 601 21.5 601L0 601Z" fill="#191960"></path></svg>